# xmcd
#
# Track frame offsets: 
#        182
#        14382
#        26592
#        41320
#        50762
#        73282
#        97727
#        120900
#        134857
#        153817
#        179147
#        203900
#        220572
#        243625
#        262515
#        278032
#
# Disc length: 4471 seconds
#
# Revision: 1
# Processed by: cddbd v1.5.2PL0 Copyright (c) Steve Scherf et al.
# Submitted via: ExactAudioCopyFreeDBPlugin 1.0
#
DISCID=de117510
DTITLE=Roland - An Anthology - Day by day Blow by blow - CD2-2
DYEAR=1994
DGENRE=Blues
TTITLE0=Cruising down on Mainstreet
TTITLE1=Boats and trains and planes
TTITLE2=Suite for the lost peace
TTITLE3=Country shack
TTITLE4=Why Geronimo why
TTITLE5=Poetry and all that jazz
TTITLE6=Mailtrain
TTITLE7=Nice wind on Anson Road
TTITLE8=Good as bad can be
TTITLE9=Isabelle I wish you well
TTITLE10=Mainline prosperety blues
TTITLE11=Junko partner
TTITLE12=Debra on the beach
TTITLE13=Hole in your soul
TTITLE14=Whirling
TTITLE15=Nights in white spirit
EXTD=
EXTT0=
EXTT1=
EXTT2=
EXTT3=
EXTT4=
EXTT5=
EXTT6=
EXTT7=
EXTT8=
EXTT9=
EXTT10=
EXTT11=
EXTT12=
EXTT13=
EXTT14=
EXTT15=
PLAYORDER=
